<svg width="81" height="41" viewBox="0 0 81 41" fill="none" xmlns="http://www.w3.org/2000/svg">
<path d="M1.87003 15V3.36364H5.93821C6.74882 3.36364 7.41738 3.50379 7.94389 3.78409C8.47041 4.06061 8.86245 4.43371 9.12003 4.90341C9.3776 5.36932 9.50639 5.88636 9.50639 6.45455C9.50639 6.95455 9.41738 7.36742 9.23935 7.69318C9.0651 8.01894 8.83404 8.27652 8.54617 8.46591C8.26207 8.6553 7.95336 8.79545 7.62003 8.88636V9C7.97609 9.02273 8.33404 9.14773 8.69389 9.375C9.05374 9.60227 9.35488 9.92803 9.5973 10.3523C9.83973 10.7765 9.96094 11.2955 9.96094 11.9091C9.96094 12.4924 9.82836 13.017 9.56321 13.483C9.29806 13.9489 8.8795 14.3182 8.30753 14.5909C7.73556 14.8636 6.99124 15 6.07457 15H1.87003ZM3.27912 13.75H6.07457C6.99503 13.75 7.64844 13.572 8.0348 13.2159C8.42495 12.8561 8.62003 12.4205 8.62003 11.9091C8.62003 11.5152 8.51965 11.1515 8.31889 10.8182C8.11813 10.4811 7.83215 10.2121 7.46094 10.0114C7.08973 9.80682 6.65033 9.70455 6.14276 9.70455H3.27912V13.75ZM3.27912 8.47727H5.89276C6.317 8.47727 6.69957 8.39394 7.04048 8.22727C7.38518 8.06061 7.65791 7.82576 7.85866 7.52273C8.06321 7.2197 8.16548 6.86364 8.16548 6.45455C8.16548 5.94318 7.98745 5.50947 7.63139 5.15341C7.27533 4.79356 6.71094 4.61364 5.93821 4.61364H3.27912V8.47727ZM12.7536 15H11.2763L15.549 3.36364H17.0036L21.2763 15H19.799L16.3217 5.20455H16.2308L12.7536 15ZM13.299 10.4545H19.2536V11.7045H13.299V10.4545ZM22.4723 3.36364L25.9268 13.1591H26.0632L29.5178 3.36364H30.995L26.7223 15H25.2678L20.995 3.36364H22.4723ZM32.2848 15H30.8075L35.0803 3.36364H36.5348L40.8075 15H39.3303L35.853 5.20455H35.7621L32.2848 15ZM32.8303 10.4545H38.7848V11.7045H32.8303V10.4545ZM42.62 15V3.36364H46.5518C47.4609 3.36364 48.2071 3.51894 48.7905 3.82955C49.3738 4.13636 49.8056 4.55871 50.0859 5.09659C50.3662 5.63447 50.5064 6.24621 50.5064 6.93182C50.5064 7.61742 50.3662 8.22538 50.0859 8.75568C49.8056 9.28598 49.3757 9.70265 48.7962 10.0057C48.2166 10.3049 47.4761 10.4545 46.5746 10.4545H43.3928V9.18182H46.5291C47.1503 9.18182 47.6503 9.09091 48.0291 8.90909C48.4117 8.72727 48.6882 8.4697 48.8587 8.13636C49.0329 7.79924 49.12 7.39773 49.12 6.93182C49.12 6.46591 49.0329 6.05871 48.8587 5.71023C48.6844 5.36174 48.406 5.0928 48.0234 4.90341C47.6409 4.71023 47.1352 4.61364 46.5064 4.61364H44.0291V15H42.62ZM48.0973 9.77273L50.9609 15H49.3246L46.5064 9.77273H48.0973ZM54.2635 3.36364V15H52.8544V3.36364H54.2635ZM57.5661 15H56.0888L60.3615 3.36364H61.8161L66.0888 15H64.6115L61.1342 5.20455H61.0433L57.5661 15ZM58.1115 10.4545H64.0661V11.7045H58.1115V10.4545ZM77.1286 3.36364V15H75.7649L69.424 5.86364H69.3104V15H67.9013V3.36364H69.2649L75.6286 12.5227H75.7422V3.36364H77.1286Z" fill="#D9B4AF"/>
<path d="M2.04972 35V17.5455H8.73153C9.9929 17.5455 11.0412 17.7443 11.8764 18.142C12.7173 18.5341 13.3452 19.071 13.7599 19.7528C14.1804 20.4347 14.3906 21.2074 14.3906 22.071C14.3906 22.7812 14.2543 23.3892 13.9815 23.8949C13.7088 24.3949 13.3423 24.8011 12.8821 25.1136C12.4219 25.4261 11.9077 25.6506 11.3395 25.7869V25.9574C11.9588 25.9915 12.5526 26.1818 13.1207 26.5284C13.6946 26.8693 14.1634 27.3523 14.527 27.9773C14.8906 28.6023 15.0724 29.358 15.0724 30.2443C15.0724 31.1477 14.8537 31.9602 14.4162 32.6818C13.9787 33.3977 13.3196 33.9631 12.4389 34.3778C11.5582 34.7926 10.4503 35 9.11506 35H2.04972ZM5.21165 32.358H8.61222C9.75994 32.358 10.5866 32.1392 11.0923 31.7017C11.6037 31.2585 11.8594 30.6903 11.8594 29.9972C11.8594 29.4801 11.7315 29.0142 11.4759 28.5994C11.2202 28.179 10.8565 27.8494 10.3849 27.6108C9.91335 27.3665 9.35085 27.2443 8.69744 27.2443H5.21165V32.358ZM5.21165 24.9688H8.33949C8.88494 24.9688 9.37642 24.8693 9.81392 24.6705C10.2514 24.4659 10.5952 24.179 10.8452 23.8097C11.1009 23.4347 11.2287 22.9915 11.2287 22.4801C11.2287 21.804 10.9901 21.2472 10.5128 20.8097C10.0412 20.3722 9.33949 20.1534 8.40767 20.1534H5.21165V24.9688ZM17.8232 35V17.5455H24.3686C25.7095 17.5455 26.8345 17.7784 27.7436 18.2443C28.6584 18.7102 29.3487 19.3636 29.8146 20.2045C30.2862 21.0398 30.522 22.0142 30.522 23.1278C30.522 24.2472 30.2834 25.2187 29.8061 26.0426C29.3345 26.8608 28.6385 27.4943 27.718 27.9432C26.7976 28.3864 25.6669 28.608 24.326 28.608H19.6641V25.983H23.8999C24.6839 25.983 25.326 25.875 25.826 25.6591C26.326 25.4375 26.6953 25.1165 26.9339 24.696C27.1783 24.2699 27.3004 23.7472 27.3004 23.1278C27.3004 22.5085 27.1783 21.9801 26.9339 21.5426C26.6896 21.0994 26.3175 20.7642 25.8175 20.5369C25.3175 20.304 24.6726 20.1875 23.8828 20.1875H20.9851V35H17.8232ZM26.8402 27.0909L31.1612 35H27.6328L23.3885 27.0909H26.8402ZM35.674 35H32.299L38.4439 17.5455H42.3473L48.5007 35H45.1257L40.4638 21.125H40.3274L35.674 35ZM35.7848 28.1562H44.9893V30.696H35.7848V28.1562ZM47.9233 20.196V17.5455H61.8494V20.196H56.4545V35H53.3182V20.196H47.9233ZM64.5341 35V17.5455H67.696V24.9347H75.7841V17.5455H78.9545V35H75.7841V27.5852H67.696V35H64.5341Z" fill="#A54216"/>
</svg>
